<svg width="20" height="20" viewBox="0 0 20 20" fill="none" xmlns="http://www.w3.org/2000/svg">
<g clip-path="url(#clip0_4915_106)">
<path fill-rule="evenodd" clip-rule="evenodd" d="M6.06997 0.690181C5.42503 0.717521 5.31059 0.727661 5.04987 0.780521C4.20607 0.951621 3.58087 1.507 3.39569 2.24996C3.37101 2.34896 3.35063 2.4313 3.35039 2.43296C3.35017 2.4346 3.16097 2.45974 2.92997 2.4888C2.69897 2.51788 2.45279 2.55486 2.38291 2.571C1.73937 2.7196 1.15577 3.2476 0.936206 3.87988C0.863246 4.08998 0.837986 4.2731 0.799666 4.86996C0.623206 7.6185 0.623426 10.4649 0.800286 13.263C0.832766 13.7769 0.849586 13.9327 0.889606 14.0905C1.07359 14.8158 1.68531 15.3973 2.42219 15.5473C2.85123 15.6346 6.34393 15.7924 6.67403 15.7394C6.82905 15.7145 6.94783 15.654 7.05783 15.544C7.17979 15.422 7.23121 15.3235 7.26041 15.1558C7.33229 14.7431 7.03383 14.3604 6.61601 14.3293C6.54669 14.3241 6.13447 14.3106 5.69997 14.2993C4.85131 14.2772 4.38375 14.2573 3.57997 14.2093C2.64727 14.1536 2.58473 14.1413 2.42585 13.9816C2.28203 13.837 2.26925 13.7766 2.22243 13.0194C2.07777 10.6799 2.06093 8.42118 2.17055 6.05996C2.21211 5.16464 2.25767 4.48494 2.28235 4.39214C2.32567 4.2291 2.46839 4.06922 2.63391 3.99828C2.74417 3.95102 3.52587 3.84764 3.53629 3.87894C3.54013 3.89046 3.58601 3.96516 3.63821 4.04494C3.94821 4.51854 4.43739 4.829 5.07999 4.95996C5.30515 5.00586 5.64199 5.03024 6.46825 5.0605C7.04405 5.08158 7.80435 5.06634 8.52697 5.01926C9.11415 4.981 9.54825 4.84952 9.92997 4.5943C10.1537 4.44472 10.5093 4.0419 10.5649 3.87506C10.568 3.86572 10.7533 3.88102 10.9767 3.90906C11.4411 3.96736 11.5284 3.99614 11.6659 4.13606C11.8181 4.29108 11.8339 4.34784 11.8696 4.87088C11.8868 5.12338 11.9095 5.4543 11.9199 5.60626C11.9437 5.9533 11.9883 6.06786 12.1623 6.2289C12.3044 6.36046 12.4491 6.41996 12.6271 6.41996C12.8842 6.41996 13.0907 6.3124 13.2332 6.10422C13.3553 5.92582 13.3688 5.83502 13.3412 5.38224C13.2711 4.2341 13.2402 4.0161 13.1054 3.71876C12.8561 3.16894 12.3214 2.72352 11.73 2.57294C11.664 2.55614 11.421 2.51892 11.19 2.49024C10.9591 2.46158 10.7647 2.43178 10.7582 2.42404C10.7516 2.4163 10.7347 2.35598 10.7206 2.29002C10.648 1.95148 10.4533 1.61356 10.1807 1.35312C9.92563 1.10942 9.67317 0.961261 9.32879 0.853181C8.97707 0.742801 8.83737 0.725841 7.98879 0.690401C7.16479 0.655981 6.87703 0.655961 6.06997 0.690181ZM6.35997 2.11216C5.34579 2.16142 5.26569 2.17192 5.05725 2.28302C4.81999 2.40948 4.71925 2.65424 4.76473 2.99372C4.80379 3.28532 4.95363 3.44362 5.27083 3.5284C5.51297 3.59312 6.79907 3.6429 7.56997 3.6174C8.79755 3.57678 9.01023 3.53842 9.20545 3.32234C9.38987 3.1182 9.39733 2.63146 9.21937 2.41554C9.14581 2.32632 8.96057 2.2288 8.78907 2.18902C8.71383 2.17158 8.50777 2.14886 8.33113 2.13854C7.98797 2.11848 6.60943 2.10004 6.35997 2.11216ZM12.93 7.99188C11.7771 8.02944 10.8794 8.0836 10.67 8.12822C9.79199 8.31532 9.10241 9.0227 8.95021 9.89244C8.92125 10.0578 8.88095 10.6911 8.83647 11.68C8.82215 11.9979 8.81171 12.8334 8.81171 13.66C8.81171 15.0479 8.82443 15.5372 8.89149 16.7275C8.93463 17.4933 8.97231 17.6749 9.16477 18.0445C9.39549 18.4876 9.81201 18.8764 10.2527 19.0598C10.6112 19.2091 10.8385 19.2374 12.21 19.3035C12.8939 19.3365 15.2681 19.3364 15.94 19.3034C16.7684 19.2626 17.3296 19.2216 17.4747 19.1911C18.2314 19.0319 18.8777 18.4532 19.1188 17.7188C19.2109 17.4381 19.2391 17.1267 19.3036 15.68C19.3366 14.9379 19.3367 12.3722 19.3037 11.64C19.2314 10.0359 19.2048 9.79432 19.0619 9.4473C18.8317 8.88834 18.3043 8.39008 17.7424 8.2008C17.4623 8.1064 17.1676 8.07538 16.02 8.0194C15.602 7.999 13.3318 7.9788 12.93 7.99188ZM12.48 9.4412C11.9102 9.46206 11.2598 9.49888 11.0732 9.52084C10.8493 9.54718 10.7054 9.61768 10.5614 9.77156C10.3623 9.98448 10.3515 10.0379 10.3008 11.06C10.2348 12.3893 10.2243 14.6487 10.2788 15.8C10.3193 16.6577 10.3434 17.0537 10.3616 17.16C10.4114 17.452 10.6605 17.7151 10.9483 17.7796C11.2045 17.837 12.8333 17.8999 14.0663 17.8999C15.317 17.9 16.9318 17.8378 17.1914 17.7796C17.3366 17.7471 17.4617 17.6731 17.5761 17.5522C17.6937 17.4278 17.7515 17.3153 17.7797 17.156C17.8354 16.8416 17.8994 14.9804 17.8996 13.67C17.8998 12.3381 17.8361 10.4854 17.7789 10.16C17.7275 9.86756 17.4993 9.62056 17.2079 9.5421C16.8702 9.45116 13.9247 9.3883 12.48 9.4412ZM12.4998 11.5884C12.2518 11.6569 12.0501 11.877 11.9995 12.1343C11.9327 12.4738 12.1178 12.8147 12.44 12.9453L12.55 12.99H14.06H15.57L15.68 12.9453C15.9147 12.8501 16.1005 12.6125 16.131 12.3686C16.1749 12.0172 15.9485 11.6772 15.6107 11.5873C15.4698 11.5498 12.636 11.5508 12.4998 11.5884ZM12.5774 14.6399C12.1815 14.7086 11.9215 15.0892 11.9995 15.4856C12.051 15.7474 12.2508 15.9639 12.5028 16.031C12.6613 16.0731 15.4586 16.0731 15.6171 16.031C15.9496 15.9425 16.1747 15.601 16.131 15.2513C16.1005 15.0074 15.9147 14.7698 15.68 14.6746L15.57 14.63L14.12 14.6269C13.3225 14.6252 12.6283 14.631 12.5774 14.6399Z" fill="#90A2B9"/>
</g>
<defs>
<clipPath id="clip0_4915_106">
<rect width="20" height="20" fill="white"/>
</clipPath>
</defs>
</svg>
