<svg width="157" height="156" viewBox="0 0 157 156" fill="none" xmlns="http://www.w3.org/2000/svg">
<path d="M82.4851 28.2128C86.4332 28.2933 96.0854 29.772 103.19 35.0358C105.215 34.2613 107.083 33.5435 108.747 32.8984C113.332 31.1208 120.931 32.8985 115.615 40.5748C109.587 49.2788 78.7414 89.1647 63.7388 107.803L120.786 85.8249C123.274 84.6937 127.784 79.7807 128.301 72.7346C130.466 79.603 131.355 92.0198 120.786 96.6525C111.348 100.79 69.8261 116.8 50.2447 124.287C44.5715 126.457 40.6929 123.906 43.6826 118.954C48.854 110.389 53.9278 103.44 56.8536 99.1575C59.2264 95.6844 83.5896 65.0852 95.4947 49.7864L38.1241 71.5226C35.6023 72.654 30.5287 75.078 28.2661 84.128C27.6736 80.5996 27.526 72.8693 29.6398 68.9369C32.2893 64.008 35.0367 61.503 45.5581 57.1396C52.0798 54.4348 66.2721 49.0379 80.2985 43.7247C85.2855 40.6128 91.5215 33.9742 82.4851 28.2128Z" fill="#343A40"/>
<path d="M120.625 50.2721L88.7073 90.5931C99.3464 86.957 121.449 78.1171 124.746 71.8467C128.042 65.5763 123.372 54.851 120.625 50.2721Z" fill="#60DF6E"/>
<path d="M65.1932 29.5852C49.8082 33.0113 38.5819 47.4428 34.8918 54.2303C44.9923 50.3248 66.1144 42.1583 69.799 40.7361C74.4048 38.9585 78.0409 35.2415 74.8088 31.1205C72.7717 28.5231 67.8427 28.9954 65.1932 29.5852Z" fill="#343A40"/>
<path d="M30.9158 92.2908C30.7865 97.4622 36.5353 106.512 39.1749 109.987C39.1749 107.207 43.6459 100.856 45.8814 98.0278L72.3042 65.9488C66.8904 68.1305 53.7355 73.3504 44.427 76.7765C32.7913 81.0591 31.0451 87.1193 30.9158 92.2908Z" fill="#343A40"/>
<path d="M120.302 104.573L83.617 120.248C79.3506 122.071 79.1997 124.456 79.6576 125.42C79.5768 127.117 82.3887 129.492 94.283 125.42C107.356 120.944 116.585 109.825 120.302 104.573Z" fill="#343A40"/>
<path d="M120.706 50.2722L93.8788 84.129C94.7946 84.8831 99.9067 83.9674 110.444 74.9174C120.98 65.8673 121.675 54.7164 120.706 50.2722Z" fill="#343A40"/>
<path d="M75.2939 31.6877C69.1528 33.2391 56.1434 43.3773 50.4064 48.2525C53.8809 46.9057 62.6239 43.5335 69.7992 40.8185C76.9746 38.1035 76.4521 33.6001 75.2939 31.6877Z" fill="#60DF6E"/>
<path d="M45.3981 87.3609C37.2531 93.9545 35.3245 101.313 35.3784 104.168L39.4993 110.39C40.081 103.796 58.6488 82.7551 67.1331 72.1698C63.2546 74.2976 53.5431 80.7673 45.3981 87.3609Z" fill="#60DF6E"/>
<path d="M102.277 116.854C98.0625 119.439 87.2632 125.204 81.8224 127.439C80.287 127.439 78.3452 125.739 79.9637 122.995C81.5821 120.252 86.105 119.087 88.8639 117.905C91.6227 116.722 103.882 111.279 111.396 108.37C110.023 110.551 107.679 113.541 102.277 116.854Z" fill="#60DF6E"/>
</svg>
