<svg width="103" height="100" viewBox="0 0 103 100" fill="none" xmlns="http://www.w3.org/2000/svg">
<path d="M55.4851 0.212769C59.4332 0.293341 69.0854 1.77199 76.1904 7.03576C78.2149 6.26133 80.0826 5.54349 81.7465 4.89844C86.3318 3.12085 93.9308 4.89853 88.6148 12.5748C82.587 21.2788 51.7414 61.1647 36.7388 79.8034L93.7862 57.8249C96.2742 56.6937 100.784 51.7807 101.301 44.7346C103.466 51.603 104.355 64.0198 93.7862 68.6525C84.3484 72.7897 42.8261 88.7995 23.2447 96.2874C17.5715 98.4567 13.6929 95.9062 16.6826 90.9544C21.854 82.3892 26.9278 75.4402 29.8536 71.1575C32.2264 67.6844 56.5896 37.0852 68.4947 21.7864L11.1241 43.5226C8.60225 44.654 3.52867 47.078 1.26613 56.128C0.673569 52.5996 0.525954 44.8693 2.63981 40.9369C5.28933 36.008 8.03666 33.503 18.5581 29.1396C25.0798 26.4348 39.2721 21.0379 53.2985 15.7247C58.2855 12.6128 64.5215 5.97425 55.4851 0.212769Z" fill="#343A40"/>
<path d="M93.6247 22.2721L61.7073 62.5931C72.3464 58.957 94.4489 50.1171 97.7457 43.8467C101.042 37.5763 96.372 26.851 93.6247 22.2721Z" fill="#60DF6E"/>
<path d="M38.1932 1.58523C22.8082 5.01131 11.5819 19.4428 7.89185 26.2303C17.9923 22.3248 39.1144 14.1583 42.799 12.7361C47.4048 10.9585 51.0409 7.24152 47.8088 3.1205C45.7717 0.523106 40.8427 0.995352 38.1932 1.58523Z" fill="#343A40"/>
<path d="M3.91578 64.2908C3.7865 69.4622 9.53529 78.5122 12.1749 81.9868C12.1749 79.2071 16.6459 72.856 18.8814 70.0278L45.3042 37.9488C39.8904 40.1305 26.7355 45.3504 17.427 48.7765C5.79125 53.0591 4.04506 59.1193 3.91578 64.2908Z" fill="#343A40"/>
<path d="M93.3018 76.5725L56.617 92.2484C52.3506 94.0715 52.1997 96.4556 52.6576 97.4198C52.5768 99.1167 55.3887 101.492 67.283 97.4198C80.3559 92.9438 89.5848 81.8247 93.3018 76.5725Z" fill="#343A40"/>
<path d="M93.7056 22.2722L66.8788 56.129C67.7946 56.8831 72.9067 55.9674 83.4435 46.9174C93.9803 37.8673 94.6752 26.7164 93.7056 22.2722Z" fill="#343A40"/>
<path d="M48.2939 3.68771C42.1528 5.23914 29.1434 15.3773 23.4064 20.2525C26.8809 18.9057 35.6239 15.5335 42.7992 12.8185C49.9746 10.1035 49.4521 5.60007 48.2939 3.68771Z" fill="#60DF6E"/>
<path d="M18.3981 59.3609C10.2531 65.9545 8.32454 73.313 8.37841 76.168L12.4993 82.3899C13.081 75.7963 31.6488 54.7551 40.1331 44.1698C36.2546 46.2976 26.5431 52.7673 18.3981 59.3609Z" fill="#60DF6E"/>
<path d="M75.2773 88.8542C71.0625 91.4389 60.2632 97.2039 54.8224 99.4394C53.287 99.4394 51.3452 97.739 52.9637 94.9952C54.5821 92.2515 59.105 91.087 61.8639 89.9046C64.6227 88.7223 76.8817 83.2787 84.3964 80.3698C83.0228 82.5515 80.6795 85.5412 75.2773 88.8542Z" fill="#60DF6E"/>
</svg>
