<svg width="18" height="27" viewBox="0 0 18 27" fill="none" xmlns="http://www.w3.org/2000/svg">
<path fill-rule="evenodd" clip-rule="evenodd" d="M11.2826 0.00681102C9.99681 0.114555 8.79834 0.5888 7.72548 1.41442C7.41209 1.65559 6.74321 2.34619 6.4994 2.68033C5.84761 3.57354 5.44105 4.52698 5.24248 5.62801C5.18021 5.97334 5.17658 6.07143 5.16176 7.81181L5.14622 9.63405L4.77776 9.65485C3.8145 9.70925 1.92048 9.86235 1.75917 9.89888C1.60487 9.93379 1.33096 10.0246 1.24284 10.07C1.05413 10.1673 0.740481 10.4316 0.612737 10.6011C0.36663 10.9275 0.229816 11.3305 0.116215 12.0637C-0.0387385 13.0641 -0.0387385 13.9269 0.116215 14.9272C0.229164 15.6562 0.366829 16.0637 0.608429 16.3842C0.733962 16.5506 1.06178 16.8281 1.24284 16.9211C1.33107 16.9664 1.60547 17.0572 1.75917 17.092C1.92048 17.1286 3.8145 17.2817 4.77776 17.3361L5.14622 17.3569L5.16039 21.4063C5.17627 25.9388 5.15473 25.4963 5.38122 25.9474C5.53493 26.2536 5.92119 26.6351 6.23745 26.793C6.6662 27.0072 6.65772 27.0066 9.00094 26.9968L11.07 26.9883L11.2684 26.9209C11.5976 26.809 11.8145 26.6689 12.0767 26.3987C12.3539 26.1131 12.4997 25.8593 12.5872 25.5104C12.6415 25.2938 12.6431 25.174 12.6431 21.3323V17.3772L12.8344 17.3603C12.9396 17.3511 13.166 17.336 13.3375 17.3268C14.2629 17.2771 16.0139 17.132 16.2578 17.0847C16.861 16.9678 17.4516 16.4722 17.6576 15.9101C17.836 15.4237 18 14.2757 18 13.5137C18 12.7202 17.8389 11.5751 17.6576 11.0808C17.4516 10.5187 16.861 10.0232 16.2578 9.90623C16.0139 9.85894 14.2629 9.71379 13.3375 9.66416C13.166 9.65496 12.9382 9.63969 12.8312 9.63023L12.6367 9.61305L12.6487 9.0306C12.6595 8.50556 12.667 8.4336 12.7244 8.30066C12.7987 8.12859 12.9726 7.94602 13.1533 7.85039C13.2784 7.78416 13.3012 7.78257 14.3579 7.7655C15.5429 7.74638 15.5732 7.74233 15.9451 7.55354C16.4805 7.28174 16.879 6.75263 16.9941 6.16046C17.0336 5.95732 17.0382 5.70122 17.0288 4.22252C17.0194 2.75631 17.0113 2.49041 16.9705 2.31617C16.7094 1.20087 15.9032 0.361049 14.8114 0.0670607C14.5948 0.008749 14.5134 0.00579866 12.9974 0.00108398C12.1244 -0.00163492 11.3527 0.000939362 11.2826 0.00681102ZM11.07 2.12642C9.95368 2.33262 9.06253 2.83435 8.34416 3.66115C7.87981 4.19559 7.55565 4.80231 7.35591 5.51087C7.19685 6.0751 7.19404 6.12332 7.17565 8.60723L7.15861 10.9067L7.07942 11.0713C6.97611 11.286 6.74171 11.5051 6.528 11.5866C6.38872 11.6398 6.25068 11.6547 5.57149 11.6896C3.77879 11.7818 2.24597 11.9075 2.211 11.9652C2.18078 12.0151 2.10749 12.4322 2.07169 12.7579C2.03487 13.0927 2.03487 13.8982 2.07169 14.233C2.10743 14.5582 2.18076 14.9758 2.21086 15.0254C2.24546 15.0826 3.84075 15.2133 5.57138 15.3007C6.25564 15.3353 6.38744 15.3495 6.52788 15.4036C6.74185 15.4861 6.97639 15.7055 7.07942 15.9196L7.15861 16.0842L7.16607 20.5024L7.17349 24.9206H8.90174H10.63L10.6374 20.5024L10.6449 16.0842L10.7157 15.9421C10.8188 15.7354 10.9994 15.5441 11.1791 15.4514C11.3659 15.3549 11.505 15.3401 12.8557 15.2728C13.8626 15.2226 15.2736 15.1207 15.6668 15.0698L15.7853 15.0544L15.8272 14.8607C15.9192 14.4341 15.9451 14.135 15.9451 13.4955C15.9451 12.8559 15.9192 12.5569 15.8272 12.1303L15.7853 11.9365L15.6668 11.9206C15.2753 11.8682 13.5302 11.7449 12.5722 11.7019C11.5516 11.656 11.3615 11.6337 11.1763 11.5381C10.9992 11.4467 10.8183 11.2545 10.7157 11.0488L10.6449 10.9067V9.53281C10.6449 8.29817 10.65 8.13984 10.6959 7.97089C10.9792 6.92788 11.653 6.1737 12.5929 5.84743C12.9649 5.71832 13.2809 5.68621 14.1817 5.68604L14.9975 5.68586L14.9895 4.18902L14.9814 2.69218L14.8979 2.53834C14.8047 2.36655 14.6843 2.2473 14.5059 2.15002C14.3863 2.08486 14.3845 2.08477 12.8698 2.07942C11.5152 2.07465 11.3232 2.07968 11.07 2.12642Z" fill="#324158"/>
</svg>
