<svg width="23" height="23" viewBox="0 0 23 23" fill="none" xmlns="http://www.w3.org/2000/svg">
<path fill-rule="evenodd" clip-rule="evenodd" d="M10.2214 0.00839641C10.144 0.0133072 9.84464 0.0296511 9.55616 0.0446905C8.41332 0.104337 6.16236 0.305885 5.54295 0.404025C3.02536 0.802902 0.95931 2.76421 0.438959 5.24925C0.32339 5.80125 0.147876 7.63795 0.0332544 9.49506C-0.0111615 10.2146 -0.0110591 12.7937 0.0334079 13.5107C0.151663 15.417 0.321574 17.1958 0.438959 17.7565C0.959182 20.2409 3.02603 22.203 5.54295 22.6017C6.11194 22.6919 8.08829 22.8721 9.54337 22.9666C10.2296 23.0111 12.7716 23.0111 13.4579 22.9666C14.913 22.8721 16.8893 22.6919 17.4583 22.6017C19.7587 22.2372 21.6856 20.5788 22.4088 18.3409C22.5811 17.8077 22.6441 17.4103 22.769 16.0684C22.9663 13.9501 23 13.2841 23 11.5029C23 9.9355 22.9851 9.53998 22.8719 8.11389C22.758 6.67809 22.6526 5.70089 22.5647 5.26595C22.0642 2.7878 19.9802 0.803567 17.4583 0.404025C16.9267 0.319799 15.0562 0.146002 13.701 0.0548958C13.1469 0.0176554 10.6094 -0.01626 10.2214 0.00839641ZM10.4516 1.83694C8.89709 1.89316 6.31132 2.11928 5.62323 2.25919C4.05056 2.57893 2.75828 3.78265 2.30356 5.3513C2.21626 5.65244 2.17696 5.9087 2.09951 6.68157C1.79756 9.69567 1.74616 11.6792 1.90796 14.0734C1.97788 15.108 2.13462 16.7816 2.20027 17.1941C2.41263 18.529 3.323 19.757 4.55782 20.3741C5.10585 20.648 5.52184 20.7585 6.35801 20.8524C9.42808 21.1973 11.6234 21.2615 14.1487 21.0804C15.5093 20.9828 17.0573 20.8209 17.4364 20.7366C18.9885 20.3914 20.2499 19.1992 20.6977 17.6545C20.7857 17.351 20.8253 17.0922 20.9014 16.3242C21.2449 12.8573 21.2688 10.8645 21.0043 7.78139C20.9364 6.99085 20.8396 6.05201 20.8012 5.81164C20.589 4.48436 19.6843 3.25732 18.4634 2.64078C17.8834 2.34792 17.4304 2.23369 16.4386 2.13023C13.8617 1.86144 12.1259 1.7764 10.4516 1.83694ZM17.1125 4.42044C16.8297 4.46766 16.5904 4.59861 16.3866 4.81768C16.2378 4.97764 16.1751 5.08192 16.1041 5.28761C16.0287 5.50625 16.022 5.91678 16.0901 6.14445C16.225 6.5955 16.5986 6.94571 17.0457 7.04044C18.0811 7.25977 18.8975 6.44362 18.6781 5.40859C18.5324 4.72161 17.858 4.29593 17.1125 4.42044ZM11.0657 6.90023C9.85267 6.9765 8.92324 7.35059 8.17763 8.06261C7.4798 8.72897 7.07906 9.56916 6.93325 10.6716C6.87906 11.0812 6.87906 11.9245 6.93325 12.3341C7.07906 13.4366 7.4798 14.2768 8.17763 14.9431C9.01409 15.7419 10.0664 16.112 11.5006 16.112C12.0875 16.112 12.5125 16.0636 12.9997 15.9412C14.2929 15.6161 15.2829 14.757 15.7709 13.5363C16.1662 12.5473 16.2323 11.1156 15.9355 9.96855C15.6664 8.92848 15.015 8.05258 14.1103 7.51411C13.3318 7.05075 12.2241 6.82739 11.0657 6.90023ZM11.0913 8.73043C9.86498 8.87878 9.21046 9.34331 8.89294 10.2907C8.77042 10.6563 8.72851 10.9647 8.7282 11.5029C8.72777 12.2315 8.84599 12.7538 9.11075 13.1928C9.45948 13.7711 10.0224 14.1117 10.8482 14.2441C11.1509 14.2926 11.9421 14.2844 12.2426 14.2296C12.7294 14.1409 13.1105 13.9817 13.4131 13.7407C13.7431 13.4779 13.9611 13.1554 14.1095 12.7107C14.2373 12.3277 14.2739 12.0587 14.2739 11.5029C14.2739 10.8203 14.1833 10.3657 13.9588 9.9211C13.7868 9.58036 13.4123 9.2088 13.0674 9.03672C12.8694 8.93791 12.5176 8.8263 12.2554 8.77908C12.0343 8.73926 11.2791 8.70769 11.0913 8.73043Z" fill="#324158"/>
</svg>
