<svg width="24" height="21" viewBox="0 0 24 21" fill="none" xmlns="http://www.w3.org/2000/svg">
<path fill-rule="evenodd" clip-rule="evenodd" d="M11.1134 0.00422666C9.15311 0.0702661 6.66164 0.240175 5.75969 0.369318C3.09417 0.750978 0.941487 2.63086 0.461442 4.99606C0.365675 5.46798 0.172496 7.20425 0.0881144 8.35178C-0.0292686 9.94805 -0.0293714 11.0902 0.0878061 12.6644C0.171647 13.7912 0.367731 15.5453 0.461442 16.007C0.860601 17.9737 2.39828 19.6133 4.51747 20.3319C5.17141 20.5536 5.61216 20.636 6.62252 20.7252C10.0629 21.0292 12.2812 21.0734 15.1358 20.8952C16.3939 20.8166 17.7764 20.7002 18.2405 20.6337C20.2125 20.3514 21.9558 19.233 22.9011 17.6439C23.2137 17.1183 23.4308 16.5653 23.5384 16.0201C23.6354 15.5292 23.8259 13.8068 23.9126 12.6382C24.0293 11.0629 24.0292 9.94424 23.9121 8.35178C23.8286 7.21707 23.6333 5.46117 23.5388 4.99606C23.2213 3.43358 22.1658 2.04322 20.6468 1.18651C19.9275 0.780865 19.0595 0.486584 18.2329 0.368243C17.5756 0.274126 15.4023 0.109748 13.9149 0.0416377C13.3058 0.0137433 11.5333 -0.00993026 11.1134 0.00422666ZM10.4965 1.90526C8.88406 1.96486 6.34794 2.16221 5.78236 2.27217C4.31817 2.55677 3.08931 3.43513 2.54002 4.5897C2.30176 5.09049 2.24676 5.3433 2.1064 6.58216C2.0252 7.29892 1.95023 8.10883 1.89407 8.8761C1.84292 9.57467 1.85071 11.5675 1.90754 12.3236C1.98842 13.4002 2.15377 14.9512 2.24756 15.5136C2.37517 16.2785 2.79353 17.0124 3.42833 17.5848C4.06117 18.1555 4.88455 18.5564 5.78236 18.7309C6.64568 18.8987 10.2241 19.1262 12.0001 19.1262C13.7761 19.1262 17.3545 18.8987 18.2178 18.7309C19.6747 18.4477 20.886 17.588 21.4551 16.4335C21.6714 15.9947 21.7388 15.7197 21.8428 14.8513C22.2309 11.6119 22.2477 9.83697 21.9188 6.81811C21.7744 5.49331 21.7211 5.19997 21.5491 4.78407C21.1329 3.77749 20.2555 2.9696 19.094 2.52358C18.428 2.26787 18.0419 2.20746 16.1382 2.06123C13.9459 1.89284 12.1655 1.84363 10.4965 1.90526ZM9.73828 5.14043C9.24083 5.24339 8.84059 5.46602 8.466 5.8481C8.07206 6.24992 7.83678 6.71893 7.76237 7.25068C7.65003 8.05382 7.59258 10.7248 7.65666 12.1663C7.71662 13.5156 7.74942 13.8257 7.87158 14.1981C8.10021 14.8951 8.67327 15.4951 9.34971 15.7458C9.90922 15.9532 10.4978 15.957 11.0497 15.757C11.5861 15.5625 13.6492 14.3576 14.6988 13.6256C17.2193 11.8681 17.7839 10.6091 16.7053 9.15138C16.0594 8.27837 14.5281 7.14629 12.2828 5.88184C11.3299 5.34519 11.0397 5.21198 10.6642 5.13868C10.4284 5.09267 9.96484 5.09353 9.73828 5.14043ZM10.0853 6.9876C9.85987 7.04753 9.71866 7.16411 9.63703 7.35764C9.5909 7.46704 9.57414 7.58911 9.54435 8.0329C9.47616 9.04908 9.45043 10.4266 9.4803 11.465C9.51983 12.84 9.56553 13.4759 9.63703 13.6454C9.73845 13.8859 9.94783 14.021 10.2192 14.0211C10.3628 14.0211 10.4078 14.006 10.669 13.8702C11.8101 13.2767 13.3547 12.3224 14.1484 11.7206C14.7085 11.2959 15.2163 10.8056 15.3397 10.5703C15.3857 10.4826 15.3614 10.4331 15.1463 10.1759C14.6267 9.55485 13.2987 8.6114 11.5353 7.61076C10.4805 7.01216 10.2941 6.93207 10.0853 6.9876Z" fill="#324158"/>
</svg>
